<svg width="27" height="27" viewBox="0 0 27 27" fill="none" xmlns="http://www.w3.org/2000/svg">
<g clip-path="url(#clip0_130_86)">
<path d="M20.25 9.69404H18.3912L16.2104 15.4679C14.2194 15.0063 12.3432 14.1441 10.6962 12.934C12.6197 10.83 13.9007 8.21924 14.3879 5.41038H17.0931C17.3685 5.41038 17.6326 5.30098 17.8274 5.10623C18.0221 4.91148 18.1315 4.64734 18.1315 4.37192C18.1315 4.09651 18.0221 3.83237 17.8274 3.63762C17.6326 3.44287 17.3685 3.33346 17.0931 3.33346H10.2133V1.03846C10.2133 0.763044 10.1039 0.498908 9.90912 0.304158C9.71437 0.109409 9.45023 0 9.17481 0C8.8994 0 8.63526 0.109409 8.44051 0.304158C8.24576 0.498908 8.13635 0.763044 8.13635 1.03846V3.33346H1.25135C0.975935 3.33346 0.711798 3.44287 0.517049 3.63762C0.3223 3.83237 0.212891 4.09651 0.212891 4.37192C0.212891 4.64734 0.3223 4.91148 0.517049 5.10623C0.711798 5.30098 0.975935 5.41038 1.25135 5.41038H3.96174C4.44662 8.21895 5.72593 10.8298 7.64827 12.934C5.87705 14.2311 3.84778 15.1324 1.69789 15.5769C1.42247 15.6065 1.1701 15.7443 0.996284 15.96C0.822471 16.1757 0.741456 16.4516 0.771064 16.727C0.800671 17.0024 0.938475 17.2548 1.15416 17.4286C1.36984 17.6024 1.64574 17.6835 1.92116 17.6538C1.99815 17.6558 2.07503 17.647 2.14962 17.6279C4.71076 17.1039 7.11548 15.993 9.17481 14.3827C11.0327 15.8398 13.1798 16.8841 15.4731 17.4462L11.854 27H14.5385L15.9404 22.9708H22.6592L24.0767 27H26.7871L20.25 9.69404ZM12.3058 5.41038C11.8743 7.71765 10.7935 9.85394 9.19039 11.5685C7.58605 9.85478 6.50511 7.71812 6.07501 5.41038H12.3058ZM16.8127 20.546L19.3206 13.365L21.8077 20.546H16.8127Z" fill="white"/>
</g>
<defs>
<clipPath id="clip0_130_86">
<rect width="27" height="27" fill="white"/>
</clipPath>
</defs>
</svg>
