<svg width="14" height="14" viewBox="0 0 14 14" fill="none" xmlns="http://www.w3.org/2000/svg">
<g clip-path="url(#clip0_26_194)">
<path d="M10.5 5.02654H9.53612L8.40535 8.02039C7.37298 7.78102 6.40015 7.33399 5.54612 6.70654C6.54349 5.61553 7.20773 4.26183 7.46035 2.80538H8.86304C9.00585 2.80538 9.14281 2.74865 9.24379 2.64767C9.34477 2.54669 9.4015 2.40973 9.4015 2.26692C9.4015 2.12411 9.34477 1.98715 9.24379 1.88617C9.14281 1.78519 9.00585 1.72846 8.86304 1.72846H5.29574V0.538462C5.29574 0.395653 5.239 0.258693 5.13802 0.157712C5.03704 0.0567306 4.90008 0 4.75727 0C4.61447 0 4.47751 0.0567306 4.37652 0.157712C4.27554 0.258693 4.21881 0.395653 4.21881 0.538462V1.72846H0.648813C0.506004 1.72846 0.369044 1.78519 0.268063 1.88617C0.167082 1.98715 0.110352 2.12411 0.110352 2.26692C0.110352 2.40973 0.167082 2.54669 0.268063 2.64767C0.369044 2.74865 0.506004 2.80538 0.648813 2.80538H2.0542C2.30562 4.26168 2.96897 5.61546 3.96574 6.70654C3.04732 7.37909 1.99511 7.84644 0.880351 8.07692C0.737543 8.09228 0.606681 8.16373 0.516556 8.27557C0.42643 8.3874 0.384423 8.53046 0.399775 8.67327C0.415127 8.81608 0.48658 8.94694 0.598417 9.03707C0.710253 9.12719 0.853312 9.1692 0.996121 9.15385C1.03604 9.15484 1.0759 9.15031 1.11458 9.14039C2.44258 8.86867 3.68947 8.29268 4.75727 7.45769C5.72063 8.21321 6.83395 8.75472 8.02304 9.04615L6.1465 14H7.53843L8.26535 11.9108H11.7492L12.4842 14H13.8896L10.5 5.02654ZM6.38074 2.80538C6.157 4.00175 5.59661 5.10945 4.76535 5.99846C3.93347 5.10988 3.37298 4.00199 3.14997 2.80538H6.38074ZM8.71766 10.6535L10.018 6.93L11.3077 10.6535H8.71766Z" fill="#FFF9F9"/>
</g>
<defs>
<clipPath id="clip0_26_194">
<rect width="14" height="14" fill="white"/>
</clipPath>
</defs>
</svg>
