<svg width="36" height="36" viewBox="0 0 36 36" fill="none" xmlns="http://www.w3.org/2000/svg">
<g clip-path="url(#clip0_26_121)">
<path d="M27 12.9254H24.5215L21.6138 20.6238C18.9592 20.0083 16.4576 18.8588 14.2615 17.2454C16.8262 14.4399 18.5342 10.959 19.1838 7.21385H22.7908C23.158 7.21385 23.5102 7.06797 23.7698 6.8083C24.0295 6.54864 24.1754 6.19645 24.1754 5.82923C24.1754 5.46201 24.0295 5.10983 23.7698 4.85016C23.5102 4.59049 23.158 4.44462 22.7908 4.44462H13.6177V1.38462C13.6177 1.01739 13.4718 0.66521 13.2121 0.405544C12.9525 0.145879 12.6003 0 12.2331 0C11.8659 0 11.5137 0.145879 11.254 0.405544C10.9943 0.66521 10.8485 1.01739 10.8485 1.38462V4.44462H1.66846C1.30124 4.44462 0.949054 4.59049 0.689388 4.85016C0.429723 5.10983 0.283844 5.46201 0.283844 5.82923C0.283844 6.19645 0.429723 6.54864 0.689388 6.8083C0.949054 7.06797 1.30124 7.21385 1.66846 7.21385H5.28231C5.92882 10.9586 7.63457 14.4398 10.1977 17.2454C7.83606 18.9748 5.13036 20.1765 2.26384 20.7692C1.89662 20.8087 1.56012 20.9924 1.32837 21.28C1.09662 21.5676 0.988598 21.9355 1.02807 22.3027C1.06755 22.6699 1.25129 23.0064 1.53887 23.2382C1.82645 23.4699 2.19431 23.5779 2.56154 23.5385C2.66418 23.541 2.76669 23.5294 2.86615 23.5038C6.281 22.8051 9.4873 21.324 12.2331 19.1769C14.7103 21.1197 17.5731 22.5121 20.6308 23.2615L15.8054 36H19.3846L21.2538 30.6277H30.2123L32.1023 36H35.7161L27 12.9254ZM16.4077 7.21385C15.8324 10.2902 14.3914 13.1386 12.2538 15.4246C10.1147 13.1397 8.67347 10.2908 8.1 7.21385H16.4077ZM22.4169 27.3946L25.7608 17.82L29.0769 27.3946H22.4169Z" fill="url(#paint0_linear_26_121)"/>
</g>
<defs>
<linearGradient id="paint0_linear_26_121" x1="18" y1="0" x2="18" y2="36" gradientUnits="userSpaceOnUse">
<stop stop-color="#ADA8FF"/>
<stop offset="1" stop-color="#AB55A3"/>
</linearGradient>
<clipPath id="clip0_26_121">
<rect width="36" height="36" fill="white"/>
</clipPath>
</defs>
</svg>
